<mxfile host="app.diagrams.net" agent="Mozilla/5.0 (Windows NT 10.0; Win64; x64) AppleWebKit/537.36 (KHTML, like Gecko) Chrome/127.0.0.0 Safari/537.36" version="24.7.7">
  <diagram name="Page-1" id="uL-v-dKuU2Owsla2-7jN">
    <mxGraphModel grid="1" page="1" gridSize="10" guides="1" tooltips="1" connect="1" arrows="1" fold="1" pageScale="1" pageWidth="850" pageHeight="1100" math="0" shadow="0">
      <root>
        <mxCell id="0" />
        <mxCell id="1" parent="0" />
        <mxCell id="nh0oCBkSoKIm4h4epGR8-1" value="Start" style="rounded=0;whiteSpace=wrap;html=1;" vertex="1" parent="1">
          <mxGeometry x="-50" y="1080" width="120" height="60" as="geometry" />
        </mxCell>
        <mxCell id="nh0oCBkSoKIm4h4epGR8-2" value="" style="endArrow=classic;html=1;rounded=0;" edge="1" parent="1">
          <mxGeometry width="50" height="50" relative="1" as="geometry">
            <mxPoint x="39.5" y="1070" as="sourcePoint" />
            <mxPoint x="80" y="1020" as="targetPoint" />
          </mxGeometry>
        </mxCell>
        <mxCell id="nh0oCBkSoKIm4h4epGR8-3" value="display welcome message" style="rounded=0;whiteSpace=wrap;html=1;" vertex="1" parent="1">
          <mxGeometry x="30" y="950" width="120" height="60" as="geometry" />
        </mxCell>
        <mxCell id="nh0oCBkSoKIm4h4epGR8-4" value="Loop through Each question" style="rounded=0;whiteSpace=wrap;html=1;" vertex="1" parent="1">
          <mxGeometry x="40" y="800" width="120" height="60" as="geometry" />
        </mxCell>
        <mxCell id="nh0oCBkSoKIm4h4epGR8-6" value="" style="endArrow=classic;html=1;rounded=0;" edge="1" parent="1">
          <mxGeometry width="50" height="50" relative="1" as="geometry">
            <mxPoint x="99.5" y="940" as="sourcePoint" />
            <mxPoint x="99.5" y="870" as="targetPoint" />
          </mxGeometry>
        </mxCell>
        <mxCell id="nh0oCBkSoKIm4h4epGR8-7" value="display question" style="rounded=0;whiteSpace=wrap;html=1;" vertex="1" parent="1">
          <mxGeometry x="40" y="650" width="120" height="60" as="geometry" />
        </mxCell>
        <mxCell id="nh0oCBkSoKIm4h4epGR8-8" value="" style="endArrow=classic;html=1;rounded=0;" edge="1" parent="1">
          <mxGeometry width="50" height="50" relative="1" as="geometry">
            <mxPoint x="99.5" y="790" as="sourcePoint" />
            <mxPoint x="99.5" y="730" as="targetPoint" />
          </mxGeometry>
        </mxCell>
        <mxCell id="nh0oCBkSoKIm4h4epGR8-9" value="read user answer" style="rounded=0;whiteSpace=wrap;html=1;" vertex="1" parent="1">
          <mxGeometry x="40" y="500" width="120" height="60" as="geometry" />
        </mxCell>
        <mxCell id="nh0oCBkSoKIm4h4epGR8-10" value="" style="endArrow=classic;html=1;rounded=0;" edge="1" parent="1">
          <mxGeometry width="50" height="50" relative="1" as="geometry">
            <mxPoint x="99.5" y="640" as="sourcePoint" />
            <mxPoint x="99.5" y="580" as="targetPoint" />
          </mxGeometry>
        </mxCell>
        <mxCell id="nh0oCBkSoKIm4h4epGR8-11" value="is answer correct?" style="rounded=1;whiteSpace=wrap;html=1;" vertex="1" parent="1">
          <mxGeometry x="30" y="380" width="170" height="60" as="geometry" />
        </mxCell>
        <mxCell id="nh0oCBkSoKIm4h4epGR8-12" value="" style="endArrow=classic;html=1;rounded=0;" edge="1" parent="1">
          <mxGeometry width="50" height="50" relative="1" as="geometry">
            <mxPoint x="130" y="380" as="sourcePoint" />
            <mxPoint x="150" y="350" as="targetPoint" />
          </mxGeometry>
        </mxCell>
        <mxCell id="nh0oCBkSoKIm4h4epGR8-13" value="" style="endArrow=classic;html=1;rounded=0;" edge="1" parent="1">
          <mxGeometry width="50" height="50" relative="1" as="geometry">
            <mxPoint x="90" y="380" as="sourcePoint" />
            <mxPoint x="70" y="350" as="targetPoint" />
          </mxGeometry>
        </mxCell>
        <mxCell id="nh0oCBkSoKIm4h4epGR8-14" value="yes" style="whiteSpace=wrap;html=1;aspect=fixed;" vertex="1" parent="1">
          <mxGeometry x="40" y="300" width="40" height="40" as="geometry" />
        </mxCell>
        <mxCell id="nh0oCBkSoKIm4h4epGR8-15" value="no" style="whiteSpace=wrap;html=1;aspect=fixed;" vertex="1" parent="1">
          <mxGeometry x="140" y="300" width="40" height="40" as="geometry" />
        </mxCell>
        <mxCell id="nh0oCBkSoKIm4h4epGR8-16" value="" style="endArrow=classic;html=1;rounded=0;" edge="1" parent="1">
          <mxGeometry width="50" height="50" relative="1" as="geometry">
            <mxPoint x="59.5" y="300" as="sourcePoint" />
            <mxPoint x="40" y="270" as="targetPoint" />
          </mxGeometry>
        </mxCell>
        <mxCell id="nh0oCBkSoKIm4h4epGR8-17" value="" style="endArrow=classic;html=1;rounded=0;" edge="1" parent="1">
          <mxGeometry width="50" height="50" relative="1" as="geometry">
            <mxPoint x="159" y="300" as="sourcePoint" />
            <mxPoint x="170" y="270" as="targetPoint" />
          </mxGeometry>
        </mxCell>
        <mxCell id="nh0oCBkSoKIm4h4epGR8-18" value="increase score" style="rounded=0;whiteSpace=wrap;html=1;" vertex="1" parent="1">
          <mxGeometry x="-40" y="200" width="120" height="60" as="geometry" />
        </mxCell>
        <mxCell id="nh0oCBkSoKIm4h4epGR8-19" value="display correct answer" style="rounded=0;whiteSpace=wrap;html=1;" vertex="1" parent="1">
          <mxGeometry x="120" y="200" width="120" height="60" as="geometry" />
        </mxCell>
        <mxCell id="nh0oCBkSoKIm4h4epGR8-20" value="" style="endArrow=classic;html=1;rounded=0;" edge="1" parent="1">
          <mxGeometry width="50" height="50" relative="1" as="geometry">
            <mxPoint x="100" y="160" as="sourcePoint" />
            <mxPoint x="99.5" y="130" as="targetPoint" />
          </mxGeometry>
        </mxCell>
        <mxCell id="nh0oCBkSoKIm4h4epGR8-21" value="" style="endArrow=none;html=1;rounded=0;entryX=0.625;entryY=-0.05;entryDx=0;entryDy=0;entryPerimeter=0;" edge="1" parent="1" target="nh0oCBkSoKIm4h4epGR8-19">
          <mxGeometry width="50" height="50" relative="1" as="geometry">
            <mxPoint x="10" y="197" as="sourcePoint" />
            <mxPoint x="240" y="100" as="targetPoint" />
            <Array as="points">
              <mxPoint x="100" y="160" />
            </Array>
          </mxGeometry>
        </mxCell>
        <mxCell id="nh0oCBkSoKIm4h4epGR8-22" value="display feedback" style="rounded=0;whiteSpace=wrap;html=1;" vertex="1" parent="1">
          <mxGeometry x="40" y="60" width="120" height="60" as="geometry" />
        </mxCell>
        <mxCell id="nh0oCBkSoKIm4h4epGR8-23" value="display final score" style="rounded=0;whiteSpace=wrap;html=1;" vertex="1" parent="1">
          <mxGeometry x="40" y="-60" width="120" height="60" as="geometry" />
        </mxCell>
        <mxCell id="nh0oCBkSoKIm4h4epGR8-24" value="" style="endArrow=classic;html=1;rounded=0;" edge="1" parent="1">
          <mxGeometry width="50" height="50" relative="1" as="geometry">
            <mxPoint x="99.5" y="60" as="sourcePoint" />
            <mxPoint x="99.5" y="10" as="targetPoint" />
          </mxGeometry>
        </mxCell>
        <mxCell id="nh0oCBkSoKIm4h4epGR8-25" value="End" style="whiteSpace=wrap;html=1;aspect=fixed;" vertex="1" parent="1">
          <mxGeometry x="60" y="-200" width="80" height="80" as="geometry" />
        </mxCell>
        <mxCell id="nh0oCBkSoKIm4h4epGR8-26" value="" style="endArrow=classic;html=1;rounded=0;" edge="1" parent="1">
          <mxGeometry width="50" height="50" relative="1" as="geometry">
            <mxPoint x="99.5" y="-60" as="sourcePoint" />
            <mxPoint x="100.5" y="-110" as="targetPoint" />
          </mxGeometry>
        </mxCell>
      </root>
    </mxGraphModel>
  </diagram>
</mxfile>
